<svg xmlns="http://www.w3.org/2000/svg" xmlns:xlink="http://www.w3.org/1999/xlink" contentStyleType="text/css" data-diagram-type="CLASS" height="387px" preserveAspectRatio="none" style="width:825px;height:387px;background:#FFFFFF;" version="1.1" viewBox="0 0 825 387" width="825px" zoomAndPan="magnify"><defs/><g><a href="../architecture/architecture_modeling_example.html#mod__example_feature_archex_module_1" target="_top" title="../architecture/architecture_modeling_example.html#mod__example_feature_archex_module_1" xlink:actuate="onRequest" xlink:href="../architecture/architecture_modeling_example.html#mod__example_feature_archex_module_1" xlink:show="new" xlink:title="../architecture/architecture_modeling_example.html#mod__example_feature_archex_module_1" xlink:type="simple"><path d="M495,17 L568.4473,17 A3.75,3.75 0 0 1 570.9473,19.5 L577.9473,39.2969 L582.4473,39.2969 A2.5,2.5 0 0 1 584.9473,41.7969 L584.9473,67.0938 A2.5,2.5 0 0 1 582.4473,69.5938 L495,69.5938 A2.5,2.5 0 0 1 492.5,67.0938 L492.5,19.5 A2.5,2.5 0 0 1 495,17 " fill="#F1F1F1" style="stroke:#181818;stroke-width:0.5;"/><line style="stroke:#181818;stroke-width:0.5;" x1="492.5" x2="577.9473" y1="39.2969" y2="39.2969"/><text fill="#000000" font-family="sans-serif" font-size="14" font-weight="bold" lengthAdjust="spacing" textLength="72.4473" x="496.5" y="31.9951">Module 1</text></a><a href="../architecture/architecture_modeling_example.html#mod__example_feature_archex_module_2" target="_top" title="../architecture/architecture_modeling_example.html#mod__example_feature_archex_module_2" xlink:actuate="onRequest" xlink:href="../architecture/architecture_modeling_example.html#mod__example_feature_archex_module_2" xlink:show="new" xlink:title="../architecture/architecture_modeling_example.html#mod__example_feature_archex_module_2" xlink:type="simple"><path d="M622,17 L695.4473,17 A3.75,3.75 0 0 1 697.9473,19.5 L704.9473,39.2969 L709.4473,39.2969 A2.5,2.5 0 0 1 711.9473,41.7969 L711.9473,67.0938 A2.5,2.5 0 0 1 709.4473,69.5938 L622,69.5938 A2.5,2.5 0 0 1 619.5,67.0938 L619.5,19.5 A2.5,2.5 0 0 1 622,17 " fill="#F1F1F1" style="stroke:#181818;stroke-width:0.5;"/><line style="stroke:#181818;stroke-width:0.5;" x1="619.5" x2="704.9473" y1="39.2969" y2="39.2969"/><text fill="#000000" font-family="sans-serif" font-size="14" font-weight="bold" lengthAdjust="spacing" textLength="72.4473" x="623.5" y="31.9951">Module 2</text></a><!--entity Feature_User--><g id="elem_Feature_User"><ellipse cx="412.6685" cy="14" fill="#F1F1F1" rx="8" ry="8" style="stroke:#181818;stroke-width:0.5;"/><path d="M412.6685,22 L412.6685,49 M399.6685,30 L425.6685,30 M412.6685,49 L399.6685,64 M412.6685,49 L425.6685,64 " fill="transparent" style="stroke:#181818;stroke-width:0.5;"/><text fill="#000000" font-family="sans-serif" font-size="14" lengthAdjust="spacing" textLength="90.3369" x="367.5" y="78.4951">Feature User</text></g><!--class logic_arc_int__example_feature__archex_logical_interface_2--><a href="../architecture/architecture_modeling_example.html#logic_arc_int__example_feature__archex_logical_interface_2" target="_top" title="../architecture/architecture_modeling_example.html#logic_arc_int__example_feature__archex_logical_interface_2" xlink:actuate="onRequest" xlink:href="../architecture/architecture_modeling_example.html#logic_arc_int__example_feature__archex_logical_interface_2" xlink:show="new" xlink:title="../architecture/architecture_modeling_example.html#logic_arc_int__example_feature__archex_logical_interface_2" xlink:type="simple"><g id="elem_logic_arc_int__example_feature__archex_logical_interface_2"><rect codeLine="14" fill="#F1F1F1" height="72.5938" id="logic_arc_int__example_feature__archex_logical_interface_2" rx="2.5" ry="2.5" style="stroke:#181818;stroke-width:0.5;" width="178.1611" x="571.5" y="174.5"/><ellipse cx="593.8652" cy="190.5" fill="#B4A7E5" rx="11" ry="11" style="stroke:#181818;stroke-width:1;"/><path d="M589.7871,186.2656 L589.7871,184.1094 L597.1777,184.1094 L597.1777,186.2656 L594.709,186.2656 L594.709,194.3438 L597.1777,194.3438 L597.1777,196.5 L589.7871,196.5 L589.7871,194.3438 L592.2559,194.3438 L592.2559,186.2656 L589.7871,186.2656 Z " fill="#000000"/><text fill="#000000" font-family="sans-serif" font-size="14" font-style="italic" lengthAdjust="spacing" textLength="129.7939" x="609.502" y="195.3467">Logical Interface 2</text><line style="stroke:#181818;stroke-width:0.5;" x1="572.5" x2="748.6611" y1="206.5" y2="206.5"/></g><a href="../architecture/architecture_modeling_example.html#logic_arc_int_op__example_feature__archex_logical_operation_3" target="_top" title="../architecture/architecture_modeling_example.html#logic_arc_int_op__example_feature__archex_logical_operation_3" xlink:actuate="onRequest" xlink:href="../architecture/architecture_modeling_example.html#logic_arc_int_op__example_feature__archex_logical_operation_3" xlink:show="new" xlink:title="../architecture/architecture_modeling_example.html#logic_arc_int_op__example_feature__archex_logical_operation_3" xlink:type="simple"><rect fill="#F1F1F1" height="10" style="stroke:transparent;stroke-width:1;" width="20" x="577.5" y="215.1484"/><ellipse cx="582.5" cy="220.1484" fill="#84BE84" rx="3" ry="3" style="stroke:#038048;stroke-width:1;"/></a></a><a href="../architecture/architecture_modeling_example.html#logic_arc_int_op__example_feature__archex_logical_operation_3" target="_top" title="../architecture/architecture_modeling_example.html#logic_arc_int_op__example_feature__archex_logical_operation_3" xlink:actuate="onRequest" xlink:href="../architecture/architecture_modeling_example.html#logic_arc_int_op__example_feature__archex_logical_operation_3" xlink:show="new" xlink:title="../architecture/architecture_modeling_example.html#logic_arc_int_op__example_feature__archex_logical_operation_3" xlink:type="simple"><text fill="#000000" font-family="sans-serif" font-size="14" lengthAdjust="spacing" textLength="152.1611" x="591.5" y="223.4951">Logical Operation 3 ()</text></a><a href="../architecture/architecture_modeling_example.html#logic_arc_int_op__example_feature__archex_logical_operation_4" target="_top" title="../architecture/architecture_modeling_example.html#logic_arc_int_op__example_feature__archex_logical_operation_4" xlink:actuate="onRequest" xlink:href="../architecture/architecture_modeling_example.html#logic_arc_int_op__example_feature__archex_logical_operation_4" xlink:show="new" xlink:title="../architecture/architecture_modeling_example.html#logic_arc_int_op__example_feature__archex_logical_operation_4" xlink:type="simple"><rect fill="#F1F1F1" height="10" style="stroke:transparent;stroke-width:1;" width="20" x="577.5" y="231.4453"/><ellipse cx="582.5" cy="236.4453" fill="#84BE84" rx="3" ry="3" style="stroke:#038048;stroke-width:1;"/></a><a href="../architecture/architecture_modeling_example.html#logic_arc_int_op__example_feature__archex_logical_operation_4" target="_top" title="../architecture/architecture_modeling_example.html#logic_arc_int_op__example_feature__archex_logical_operation_4" xlink:actuate="onRequest" xlink:href="../architecture/architecture_modeling_example.html#logic_arc_int_op__example_feature__archex_logical_operation_4" xlink:show="new" xlink:title="../architecture/architecture_modeling_example.html#logic_arc_int_op__example_feature__archex_logical_operation_4" xlink:type="simple"><text fill="#000000" font-family="sans-serif" font-size="14" lengthAdjust="spacing" textLength="152.1611" x="591.5" y="239.792">Logical Operation 4 ()</text></a><!--class logic_arc_int__example_feature__archex_logical_interface_1--><a href="../architecture/architecture_modeling_example.html#logic_arc_int__example_feature__archex_logical_interface_1" target="_top" title="../architecture/architecture_modeling_example.html#logic_arc_int__example_feature__archex_logical_interface_1" xlink:actuate="onRequest" xlink:href="../architecture/architecture_modeling_example.html#logic_arc_int__example_feature__archex_logical_interface_1" xlink:show="new" xlink:title="../architecture/architecture_modeling_example.html#logic_arc_int__example_feature__archex_logical_interface_1" xlink:type="simple"><g id="elem_logic_arc_int__example_feature__archex_logical_interface_1"><rect codeLine="21" fill="#F1F1F1" height="72.5938" id="logic_arc_int__example_feature__archex_logical_interface_1" rx="2.5" ry="2.5" style="stroke:#181818;stroke-width:0.5;" width="178.1611" x="76.5" y="174.5"/><ellipse cx="98.8652" cy="190.5" fill="#B4A7E5" rx="11" ry="11" style="stroke:#181818;stroke-width:1;"/><path d="M94.7871,186.2656 L94.7871,184.1094 L102.1777,184.1094 L102.1777,186.2656 L99.709,186.2656 L99.709,194.3438 L102.1777,194.3438 L102.1777,196.5 L94.7871,196.5 L94.7871,194.3438 L97.2559,194.3438 L97.2559,186.2656 L94.7871,186.2656 Z " fill="#000000"/><text fill="#000000" font-family="sans-serif" font-size="14" font-style="italic" lengthAdjust="spacing" textLength="129.7939" x="114.502" y="195.3467">Logical Interface 1</text><line style="stroke:#181818;stroke-width:0.5;" x1="77.5" x2="253.6611" y1="206.5" y2="206.5"/></g><a href="../architecture/architecture_modeling_example.html#logic_arc_int_op__example_feature__archex_logical_operation_1" target="_top" title="../architecture/architecture_modeling_example.html#logic_arc_int_op__example_feature__archex_logical_operation_1" xlink:actuate="onRequest" xlink:href="../architecture/architecture_modeling_example.html#logic_arc_int_op__example_feature__archex_logical_operation_1" xlink:show="new" xlink:title="../architecture/architecture_modeling_example.html#logic_arc_int_op__example_feature__archex_logical_operation_1" xlink:type="simple"><rect fill="#F1F1F1" height="10" style="stroke:transparent;stroke-width:1;" width="20" x="82.5" y="215.1484"/><ellipse cx="87.5" cy="220.1484" fill="#84BE84" rx="3" ry="3" style="stroke:#038048;stroke-width:1;"/></a></a><a href="../architecture/architecture_modeling_example.html#logic_arc_int_op__example_feature__archex_logical_operation_1" target="_top" title="../architecture/architecture_modeling_example.html#logic_arc_int_op__example_feature__archex_logical_operation_1" xlink:actuate="onRequest" xlink:href="../architecture/architecture_modeling_example.html#logic_arc_int_op__example_feature__archex_logical_operation_1" xlink:show="new" xlink:title="../architecture/architecture_modeling_example.html#logic_arc_int_op__example_feature__archex_logical_operation_1" xlink:type="simple"><text fill="#000000" font-family="sans-serif" font-size="14" lengthAdjust="spacing" textLength="152.1611" x="96.5" y="223.4951">Logical Operation 1 ()</text></a><a href="../architecture/architecture_modeling_example.html#logic_arc_int_op__example_feature__archex_logical_operation_2" target="_top" title="../architecture/architecture_modeling_example.html#logic_arc_int_op__example_feature__archex_logical_operation_2" xlink:actuate="onRequest" xlink:href="../architecture/architecture_modeling_example.html#logic_arc_int_op__example_feature__archex_logical_operation_2" xlink:show="new" xlink:title="../architecture/architecture_modeling_example.html#logic_arc_int_op__example_feature__archex_logical_operation_2" xlink:type="simple"><rect fill="#F1F1F1" height="10" style="stroke:transparent;stroke-width:1;" width="20" x="82.5" y="231.4453"/><ellipse cx="87.5" cy="236.4453" fill="#84BE84" rx="3" ry="3" style="stroke:#038048;stroke-width:1;"/></a><a href="../architecture/architecture_modeling_example.html#logic_arc_int_op__example_feature__archex_logical_operation_2" target="_top" title="../architecture/architecture_modeling_example.html#logic_arc_int_op__example_feature__archex_logical_operation_2" xlink:actuate="onRequest" xlink:href="../architecture/architecture_modeling_example.html#logic_arc_int_op__example_feature__archex_logical_operation_2" xlink:show="new" xlink:title="../architecture/architecture_modeling_example.html#logic_arc_int_op__example_feature__archex_logical_operation_2" xlink:type="simple"><text fill="#000000" font-family="sans-serif" font-size="14" lengthAdjust="spacing" textLength="152.1611" x="96.5" y="239.792">Logical Operation 2 ()</text></a><!--class logic_arc_int__example_feature__archex_logical_interface_3--><a href="../architecture/architecture_modeling_example.html#logic_arc_int__example_feature__archex_logical_interface_3" target="_top" title="../architecture/architecture_modeling_example.html#logic_arc_int__example_feature__archex_logical_interface_3" xlink:actuate="onRequest" xlink:href="../architecture/architecture_modeling_example.html#logic_arc_int__example_feature__archex_logical_interface_3" xlink:show="new" xlink:title="../architecture/architecture_modeling_example.html#logic_arc_int__example_feature__archex_logical_interface_3" xlink:type="simple"><g id="elem_logic_arc_int__example_feature__archex_logical_interface_3"><rect codeLine="31" fill="#F1F1F1" height="105.1875" id="logic_arc_int__example_feature__archex_logical_interface_3" rx="2.5" ry="2.5" style="stroke:#181818;stroke-width:0.5;" width="178.1611" x="323.5" y="158.5"/><ellipse cx="345.8652" cy="174.5" fill="#B4A7E5" rx="11" ry="11" style="stroke:#181818;stroke-width:1;"/><path d="M341.7871,170.2656 L341.7871,168.1094 L349.1777,168.1094 L349.1777,170.2656 L346.709,170.2656 L346.709,178.3438 L349.1777,178.3438 L349.1777,180.5 L341.7871,180.5 L341.7871,178.3438 L344.2559,178.3438 L344.2559,170.2656 L341.7871,170.2656 Z " fill="#000000"/><text fill="#000000" font-family="sans-serif" font-size="14" font-style="italic" lengthAdjust="spacing" textLength="129.7939" x="361.502" y="179.3467">Logical Interface 3</text><line style="stroke:#181818;stroke-width:0.5;" x1="324.5" x2="500.6611" y1="190.5" y2="190.5"/></g><a href="../architecture/architecture_modeling_example.html#logic_arc_int_op__example_feature__archex_logical_operation_5" target="_top" title="../architecture/architecture_modeling_example.html#logic_arc_int_op__example_feature__archex_logical_operation_5" xlink:actuate="onRequest" xlink:href="../architecture/architecture_modeling_example.html#logic_arc_int_op__example_feature__archex_logical_operation_5" xlink:show="new" xlink:title="../architecture/architecture_modeling_example.html#logic_arc_int_op__example_feature__archex_logical_operation_5" xlink:type="simple"><rect fill="#F1F1F1" height="10" style="stroke:transparent;stroke-width:1;" width="20" x="329.5" y="199.1484"/><ellipse cx="334.5" cy="204.1484" fill="#84BE84" rx="3" ry="3" style="stroke:#038048;stroke-width:1;"/></a></a><a href="../architecture/architecture_modeling_example.html#logic_arc_int_op__example_feature__archex_logical_operation_5" target="_top" title="../architecture/architecture_modeling_example.html#logic_arc_int_op__example_feature__archex_logical_operation_5" xlink:actuate="onRequest" xlink:href="../architecture/architecture_modeling_example.html#logic_arc_int_op__example_feature__archex_logical_operation_5" xlink:show="new" xlink:title="../architecture/architecture_modeling_example.html#logic_arc_int_op__example_feature__archex_logical_operation_5" xlink:type="simple"><text fill="#000000" font-family="sans-serif" font-size="14" lengthAdjust="spacing" textLength="152.1611" x="343.5" y="207.4951">Logical Operation 5 ()</text></a><a href="../architecture/architecture_modeling_example.html#logic_arc_int_op__example_feature__archex_logical_operation_6" target="_top" title="../architecture/architecture_modeling_example.html#logic_arc_int_op__example_feature__archex_logical_operation_6" xlink:actuate="onRequest" xlink:href="../architecture/architecture_modeling_example.html#logic_arc_int_op__example_feature__archex_logical_operation_6" xlink:show="new" xlink:title="../architecture/architecture_modeling_example.html#logic_arc_int_op__example_feature__archex_logical_operation_6" xlink:type="simple"><rect fill="#F1F1F1" height="10" style="stroke:transparent;stroke-width:1;" width="20" x="329.5" y="215.4453"/><ellipse cx="334.5" cy="220.4453" fill="#84BE84" rx="3" ry="3" style="stroke:#038048;stroke-width:1;"/></a><a href="../architecture/architecture_modeling_example.html#logic_arc_int_op__example_feature__archex_logical_operation_6" target="_top" title="../architecture/architecture_modeling_example.html#logic_arc_int_op__example_feature__archex_logical_operation_6" xlink:actuate="onRequest" xlink:href="../architecture/architecture_modeling_example.html#logic_arc_int_op__example_feature__archex_logical_operation_6" xlink:show="new" xlink:title="../architecture/architecture_modeling_example.html#logic_arc_int_op__example_feature__archex_logical_operation_6" xlink:type="simple"><text fill="#000000" font-family="sans-serif" font-size="14" lengthAdjust="spacing" textLength="152.1611" x="343.5" y="223.792">Logical Operation 6 ()</text></a><a href="../architecture/architecture_modeling_example.html#logic_arc_int_op__example_feature__archex_logical_operation_7" target="_top" title="../architecture/architecture_modeling_example.html#logic_arc_int_op__example_feature__archex_logical_operation_7" xlink:actuate="onRequest" xlink:href="../architecture/architecture_modeling_example.html#logic_arc_int_op__example_feature__archex_logical_operation_7" xlink:show="new" xlink:title="../architecture/architecture_modeling_example.html#logic_arc_int_op__example_feature__archex_logical_operation_7" xlink:type="simple"><rect fill="#F1F1F1" height="10" style="stroke:transparent;stroke-width:1;" width="20" x="329.5" y="231.7422"/><ellipse cx="334.5" cy="236.7422" fill="#84BE84" rx="3" ry="3" style="stroke:#038048;stroke-width:1;"/></a><a href="../architecture/architecture_modeling_example.html#logic_arc_int_op__example_feature__archex_logical_operation_7" target="_top" title="../architecture/architecture_modeling_example.html#logic_arc_int_op__example_feature__archex_logical_operation_7" xlink:actuate="onRequest" xlink:href="../architecture/architecture_modeling_example.html#logic_arc_int_op__example_feature__archex_logical_operation_7" xlink:show="new" xlink:title="../architecture/architecture_modeling_example.html#logic_arc_int_op__example_feature__archex_logical_operation_7" xlink:type="simple"><text fill="#000000" font-family="sans-serif" font-size="14" lengthAdjust="spacing" textLength="152.1611" x="343.5" y="240.0889">Logical Operation 7 ()</text></a><a href="../architecture/architecture_modeling_example.html#logic_arc_int_op__example_feature__archex_logical_operation_8" target="_top" title="../architecture/architecture_modeling_example.html#logic_arc_int_op__example_feature__archex_logical_operation_8" xlink:actuate="onRequest" xlink:href="../architecture/architecture_modeling_example.html#logic_arc_int_op__example_feature__archex_logical_operation_8" xlink:show="new" xlink:title="../architecture/architecture_modeling_example.html#logic_arc_int_op__example_feature__archex_logical_operation_8" xlink:type="simple"><rect fill="#F1F1F1" height="10" style="stroke:transparent;stroke-width:1;" width="20" x="329.5" y="248.0391"/><ellipse cx="334.5" cy="253.0391" fill="#84BE84" rx="3" ry="3" style="stroke:#038048;stroke-width:1;"/></a><a href="../architecture/architecture_modeling_example.html#logic_arc_int_op__example_feature__archex_logical_operation_8" target="_top" title="../architecture/architecture_modeling_example.html#logic_arc_int_op__example_feature__archex_logical_operation_8" xlink:actuate="onRequest" xlink:href="../architecture/architecture_modeling_example.html#logic_arc_int_op__example_feature__archex_logical_operation_8" xlink:show="new" xlink:title="../architecture/architecture_modeling_example.html#logic_arc_int_op__example_feature__archex_logical_operation_8" xlink:type="simple"><text fill="#000000" font-family="sans-serif" font-size="14" lengthAdjust="spacing" textLength="152.1611" x="343.5" y="256.3857">Logical Operation 8 ()</text></a><!--class comp__component_example_2--><g id="elem_comp__component_example_2"><rect fill="#F1F1F1" height="40" id="comp__component_example_2" rx="2.5" ry="2.5" style="stroke:#181818;stroke-width:0.5;" width="247.4004" x="571" y="340.5"/><ellipse cx="586" cy="356.5" fill="#ADD1B2" rx="11" ry="11" style="stroke:#181818;stroke-width:1;"/><path d="M588.9688,362.1406 Q588.3906,362.4375 587.75,362.5781 Q587.1094,362.7344 586.4063,362.7344 Q583.9063,362.7344 582.5781,361.0938 Q581.2656,359.4375 581.2656,356.3125 Q581.2656,353.1875 582.5781,351.5313 Q583.9063,349.875 586.4063,349.875 Q587.1094,349.875 587.75,350.0313 Q588.4063,350.1875 588.9688,350.4844 L588.9688,353.2031 Q588.3438,352.625 587.75,352.3594 Q587.1563,352.0781 586.5313,352.0781 Q585.1875,352.0781 584.5,353.1563 Q583.8125,354.2188 583.8125,356.3125 Q583.8125,358.4063 584.5,359.4844 Q585.1875,360.5469 586.5313,360.5469 Q587.1563,360.5469 587.75,360.2813 Q588.3438,360 588.9688,359.4219 L588.9688,362.1406 Z " fill="#000000"/><text fill="#000000" font-family="sans-serif" font-size="14" lengthAdjust="spacing" textLength="215.4004" x="600" y="361.3467">comp__component_example_2</text><line style="stroke:#181818;stroke-width:0.5;" x1="572" x2="817.4004" y1="372.5" y2="372.5"/></g><!--class comp__component_example_3--><g id="elem_comp__component_example_3"><rect fill="#F1F1F1" height="40" id="comp__component_example_3" rx="2.5" ry="2.5" style="stroke:#181818;stroke-width:0.5;" width="247.4004" x="289" y="340.5"/><ellipse cx="304" cy="356.5" fill="#ADD1B2" rx="11" ry="11" style="stroke:#181818;stroke-width:1;"/><path d="M306.9688,362.1406 Q306.3906,362.4375 305.75,362.5781 Q305.1094,362.7344 304.4063,362.7344 Q301.9063,362.7344 300.5781,361.0938 Q299.2656,359.4375 299.2656,356.3125 Q299.2656,353.1875 300.5781,351.5313 Q301.9063,349.875 304.4063,349.875 Q305.1094,349.875 305.75,350.0313 Q306.4063,350.1875 306.9688,350.4844 L306.9688,353.2031 Q306.3438,352.625 305.75,352.3594 Q305.1563,352.0781 304.5313,352.0781 Q303.1875,352.0781 302.5,353.1563 Q301.8125,354.2188 301.8125,356.3125 Q301.8125,358.4063 302.5,359.4844 Q303.1875,360.5469 304.5313,360.5469 Q305.1563,360.5469 305.75,360.2813 Q306.3438,360 306.9688,359.4219 L306.9688,362.1406 Z " fill="#000000"/><text fill="#000000" font-family="sans-serif" font-size="14" lengthAdjust="spacing" textLength="215.4004" x="318" y="361.3467">comp__component_example_3</text><line style="stroke:#181818;stroke-width:0.5;" x1="290" x2="535.4004" y1="372.5" y2="372.5"/></g><!--class comp__component_example_1--><g id="elem_comp__component_example_1"><rect fill="#F1F1F1" height="40" id="comp__component_example_1" rx="2.5" ry="2.5" style="stroke:#181818;stroke-width:0.5;" width="247.4004" x="7" y="340.5"/><ellipse cx="22" cy="356.5" fill="#ADD1B2" rx="11" ry="11" style="stroke:#181818;stroke-width:1;"/><path d="M24.9688,362.1406 Q24.3906,362.4375 23.75,362.5781 Q23.1094,362.7344 22.4063,362.7344 Q19.9063,362.7344 18.5781,361.0938 Q17.2656,359.4375 17.2656,356.3125 Q17.2656,353.1875 18.5781,351.5313 Q19.9063,349.875 22.4063,349.875 Q23.1094,349.875 23.75,350.0313 Q24.4063,350.1875 24.9688,350.4844 L24.9688,353.2031 Q24.3438,352.625 23.75,352.3594 Q23.1563,352.0781 22.5313,352.0781 Q21.1875,352.0781 20.5,353.1563 Q19.8125,354.2188 19.8125,356.3125 Q19.8125,358.4063 20.5,359.4844 Q21.1875,360.5469 22.5313,360.5469 Q23.1563,360.5469 23.75,360.2813 Q24.3438,360 24.9688,359.4219 L24.9688,362.1406 Z " fill="#000000"/><text fill="#000000" font-family="sans-serif" font-size="14" lengthAdjust="spacing" textLength="215.4004" x="36" y="361.3467">comp__component_example_1</text><line style="stroke:#181818;stroke-width:0.5;" x1="8" x2="253.4004" y1="372.5" y2="372.5"/></g><!--reverse link logic_arc_int__example_feature__archex_logical_interface_2 to comp__component_example_2--><g id="link_logic_arc_int__example_feature__archex_logical_interface_2_comp__component_example_2"><path codeLine="44" d="M670.0778,253.5567 C676.7978,282.7067 684.69,316.95 690.09,340.35 " fill="transparent" id="logic_arc_int__example_feature__archex_logical_interface_2-backto-comp__component_example_2" style="stroke:#181818;stroke-width:1;"/><polygon fill="#181818" points="668.73,247.71,666.854,257.3785,669.8532,252.5822,674.6495,255.5814,668.73,247.71" style="stroke:#181818;stroke-width:1;"/><text fill="#000000" font-family="sans-serif" font-size="13" lengthAdjust="spacing" textLength="76.9082" x="684.5" y="306.5669">implements</text></g><!--reverse link logic_arc_int__example_feature__archex_logical_interface_3 to comp__component_example_3--><g id="link_logic_arc_int__example_feature__archex_logical_interface_3_comp__component_example_3"><path codeLine="45" d="M412.5,269.59 C412.5,296.17 412.5,320.99 412.5,340.37 " fill="transparent" id="logic_arc_int__example_feature__archex_logical_interface_3-backto-comp__component_example_3" style="stroke:#181818;stroke-width:1;"/><polygon fill="#181818" points="412.5,263.59,408.5,272.59,412.5,268.59,416.5,272.59,412.5,263.59" style="stroke:#181818;stroke-width:1;"/><text fill="#000000" font-family="sans-serif" font-size="13" lengthAdjust="spacing" textLength="76.9082" x="413.5" y="306.5669">implements</text></g><!--link Feature_User to logic_arc_int__example_feature__archex_logical_interface_1--><g id="link_Feature_User_logic_arc_int__example_feature__archex_logical_interface_1"><path codeLine="46" d="M367.48,74.66 C325.6,102.73 268.1343,141.2299 223.7843,170.9499 " fill="transparent" id="Feature_User-to-logic_arc_int__example_feature__archex_logical_interface_1" style="stroke:#181818;stroke-width:1;"/><polygon fill="#181818" points="218.8,174.29,228.5032,172.6027,222.9536,171.5066,224.0498,165.9569,218.8,174.29" style="stroke:#181818;stroke-width:1;"/><text fill="#000000" font-family="sans-serif" font-size="13" lengthAdjust="spacing" textLength="23.0103" x="312.5" y="124.5669">use</text></g><!--link Feature_User to logic_arc_int__example_feature__archex_logical_interface_2--><g id="link_Feature_User_logic_arc_int__example_feature__archex_logical_interface_2"><path codeLine="47" d="M457.7,74.66 C499.75,102.73 557.4591,141.2397 601.9991,170.9597 " fill="transparent" id="Feature_User-to-logic_arc_int__example_feature__archex_logical_interface_2" style="stroke:#181818;stroke-width:1;"/><polygon fill="#181818" points="606.99,174.29,601.7238,165.9673,602.8309,171.5148,597.2834,172.6219,606.99,174.29" style="stroke:#181818;stroke-width:1;"/><text fill="#000000" font-family="sans-serif" font-size="13" lengthAdjust="spacing" textLength="23.0103" x="537.5" y="124.5669">use</text></g><!--reverse link logic_arc_int__example_feature__archex_logical_interface_1 to comp__component_example_1--><g id="link_logic_arc_int__example_feature__archex_logical_interface_1_comp__component_example_1"><path codeLine="48" d="M155.6442,253.5478 C148.7242,282.6978 140.6,316.95 135.04,340.35 " fill="transparent" id="logic_arc_int__example_feature__archex_logical_interface_1-backto-comp__component_example_1" style="stroke:#181818;stroke-width:1;"/><polygon fill="#181818" points="157.03,247.71,151.0594,255.5427,155.8751,252.5748,158.8431,257.3905,157.03,247.71" style="stroke:#181818;stroke-width:1;"/><text fill="#000000" font-family="sans-serif" font-size="13" lengthAdjust="spacing" textLength="76.9082" x="147.5" y="306.5669">implements</text></g><!--link Feature_User to logic_arc_int__example_feature__archex_logical_interface_3--><g id="link_Feature_User_logic_arc_int__example_feature__archex_logical_interface_3"><path codeLine="49" d="M412.5,81.64 C412.5,104.23 412.5,127.41 412.5,152.24 " fill="transparent" id="Feature_User-to-logic_arc_int__example_feature__archex_logical_interface_3" style="stroke:#181818;stroke-width:1;"/><polygon fill="#181818" points="412.5,158.24,416.5,149.24,412.5,153.24,408.5,149.24,412.5,158.24" style="stroke:#181818;stroke-width:1;"/><text fill="#000000" font-family="sans-serif" font-size="13" lengthAdjust="spacing" textLength="23.0103" x="413.5" y="124.5669">use</text></g><!--SRC=[nPPDQ-Cm48Rl-XL3zj0k9KubzOjIUbae5BhqqZqL8nHxceXAbf5acb3wtrTEx49ed0trjhuO98_UUJpp3fRKshu8enQgc95WImWMfZO4Qo1N3hEWR47cAaVm0HtQi2nnlKPJXYN849oQLW4zkV9XgV6Q9D8hFOLNSgSA_6MrTU0mNwqUvYfxBj1xOCanUIDNa-OCaLc8SQCRbA5o27yykX583ys6g3U0g292FCaCONHdPogJ6cxVjzZgWAxtXNIPYC52u4AQKgDuQdJgDtDS2Bq-BjuL1GDuV4oIIHsWGlpo6Bwn4CRcg6ETMj5a7ep-yVc4QHgBH8wW_PJx4fsi2muS3dz6cluujlmtaMtJ2fwcwLQUas5uJceUyWQJ0zZIRZYO0Dbj2ThF4lIxBK6xBK67QG7jiWGRXeVjiWHTMwAKsRESHKFyjdcbMnT4be-9cZnc5VZfVkyZ7JiRMxi2Rx7sC33lPs3-tGRctGO-7SOmfrq6FXk6vwoBvtmOdlCkdejXU2vs3JZVFk1itm5dNpVWxEE0DtyeabaJIr0_RO6n8AqGWt4rlkvnOxa4LOUQAEgXCmtlcOPlfjcuaOtpFihq4YgF_rMIDP9TnQ0zYq6_h1Yy8VyB]--></g></svg>